PathFileType	4	(X/Y/Z)	T1_P2_Vision_NoMovement_4_0-734.trc
DataRate	CameraRate	NumFrames	NumMarkers	Units	OrigDataRate	OrigDataStartFrame	OrigNumFrames
60	60	4	27	m	60	91	734
Frame#	Time	RHip			RKnee			RAnkle			RBigToe			RSmallToe			RHeel			LHip			LKnee			LAnkle			LBigToe			LSmallToe			LHeel			Neck			Head			Nose			RShoulder			RElbow			RWrist			RThumb			RIndex			RPinky			LShoulder			LElbow			LWrist			LThumb			LIndex			LPinky		
		X1	Y1	Z1	X2	Y2	Z2	X3	Y3	Z3	X4	Y4	Z4	X5	Y5	Z5	X6	Y6	Z6	X7	Y7	Z7	X8	Y8	Z8	X9	Y9	Z9	X10	Y10	Z10	X11	Y11	Z11	X12	Y12	Z12	X13	Y13	Z13	X14	Y14	Z14	X15	Y15	Z15	X16	Y16	Z16	X17	Y17	Z17	X18	Y18	Z18	X19	Y19	Z19	X20	Y20	Z20	X21	Y21	Z21	X22	Y22	Z22	X23	Y23	Z23	X24	Y24	Z24	X25	Y25	Z25	X26	Y26	Z26	X27	Y27	Z27
92	1.5333333333333334	457.69286651480206	3731.9152126842464	658.6095350588803	847.9755079927461	3786.700622945228	654.4891370778953	1202.1375007427025	3730.2105656770627	674.3072845940559	1296.177326979342	3655.2949957967535	658.4463007942342	1294.0309801882509	3713.857105521459	612.8804948404895	1273.2526816657494	3803.3574389753735	743.4171328343398	459.98188831135343	3628.0398519991986	850.3672318194931	844.2687268480446	3649.453019638565	863.7156333063419	1225.3302642878261	3674.6045020776087	853.9396785685594	1309.6750328187431	3562.3301832383268	811.7047840077894	1285.1592685326552	3538.20085345048	845.1540158587989	1252.817260829952	3703.419828815452	856.1608941741517	-126.163085706783	3652.3604679759355	755.0608850944275	-388.6463226522229	3589.741204624975	708.9237087521772	-244.8610503605725	3541.705564019435	700.1212382023268	-40.9504682861772	3707.770069528695	616.8869397960459	199.33649444178945	3716.0904657771653	546.958403950902	346.9210601691452	3555.9374398348655	630.3706199896762	388.38716681458175	3476.209238639603	671.2082042733678	429.27111169931266	3522.0769150860388	721.4171401589014	453.30324189207386	3501.465980313825	699.3184521553088	-38.49875677305799	3593.4053211418154	910.6760829507019	212.99201407853496	3512.727089747806	916.2066559943602	367.0500130842645	3453.118928495946	727.414586437618	402.93230207047134	3451.451847706574	627.2287771972213	435.82831244982304	3474.280986501743	627.6136473223123	472.5968781395181	3498.1613614970906	707.0925582138764
93	1.55	457.39921901365943	3729.510476436454	657.9676216628162	844.2827567414572	3777.88527416956	652.1873711876757	1200.7359508293682	3729.5026877643418	674.0351150969675	1297.3229863633107	3656.9599578950247	660.0105577906811	1294.1072594876196	3713.8375177060316	612.8475392750104	1270.669819308228	3801.689235822146	742.7935509373987	459.9855403641843	3627.8094471109816	850.2932245539359	842.3570962804447	3644.5366670124113	860.340832667566	1224.955271700848	3674.525277895957	853.8537220309902	1309.5639409691296	3562.1821451398787	811.6085977602123	1283.8172631826214	3537.55470495364	844.57653306044	1251.6202085901382	3702.8171750493757	855.9949707610378	-126.23220950163794	3652.445728872929	755.0963242102864	-388.5763279854093	3589.7918397108424	709.0003778190224	-245.1285308919044	3545.815285254367	703.7857703294885	-40.9296870179459	3708.3055042835153	617.0719251098678	199.14478703901142	3713.7896318246694	546.4547487623445	347.0631559403087	3555.310586503874	630.047482169635	387.1362509608046	3480.9108159121038	678.4726161826311	429.3602404747833	3521.9275953593487	721.3472012628935	453.0088156927124	3498.7858427949955	698.2546832350102	-38.525432243160196	3593.6108399337477	910.6223273210394	211.3825985894944	3511.6036984303983	915.6387416324712	365.409823837683	3451.8659981089004	726.837807310372	401.9898036206601	3446.3549094150203	622.9795874569729	435.1217352381841	3470.7968710843884	626.4921308389373	472.58303950870527	3497.7783188312023	706.9674064133396
94	1.5666666666666669	457.97233496699124	3729.6776489502095	658.0695696861856	840.4177388999168	3770.896032792832	650.5096130981779	1199.6028748941765	3729.1045845975805	673.7623733825707	1298.8253248093679	3659.7115756017674	662.2872080342178	1293.7697934285845	3713.410621665982	612.818822210385	1266.8712916110162	3798.4503496867937	741.626748847563	459.9751127546453	3627.6470276983696	850.2540087328643	842.3893791675669	3643.144760229015	859.3171107218969	1225.2582514411463	3674.7798165387367	854.044722618798	1309.4096203854424	3561.9890580938154	811.59714708772	1283.1761611451966	3537.300983195926	844.3981330175299	1250.7974190730222	3702.487892045644	855.9414502386945	-126.27822514514185	3652.5239101361967	755.0802412766612	-388.49057202529013	3589.6447362141776	709.4910558497456	-245.02459161459953	3552.178181645056	709.2262890220998	-40.911138852577395	3708.5501274302314	617.1603478404612	198.7138519240243	3708.0829926354168	545.1755891759387	346.39826259434426	3554.9974881087637	629.8959389512082	387.3557834697845	3483.721207762849	682.21628577551	429.3284347868229	3521.7941061297006	721.3206705803709	452.7716373510845	3497.3281106559966	698.951835120195	-38.55256908635893	3593.850205450075	910.7133258110412	209.5829168236945	3510.13050055799	914.9108825052648	364.12764569610783	3450.6929851792156	726.3180265366757	401.48496809535465	3443.3557271038967	621.5857797090412	433.97158237892063	3464.69640036898	624.5571202004985	472.6583143029536	3497.425868262514	706.8711518845812
95	1.5833333333333333	459.30520903584215	3730.673029157419	658.4741990602163	837.6775649118108	3766.2506643847505	649.5089713875607	1199.1286407768594	3728.947840845654	673.6303382248533	1299.539000639478	3661.1139653741484	663.3819298271478	1292.8807580591467	3711.2205605754834	612.3078377221066	1264.892892831565	3796.601249786303	740.8609068158981	459.94373467186455	3627.593040374842	850.2715441815453	844.0943610737687	3645.8849300455004	861.3911267815017	1226.046948732885	3675.0324192876083	854.2802064330488	1309.365206961358	3561.9596248661296	811.7095632864546	1283.4667725685197	3537.3642572171966	844.6005303643594	1250.6136103104525	3702.2937699255144	855.8875335151901	-126.31496166307271	3652.5262882667357	755.1478134959501	-388.5313891275946	3589.343025647102	710.6839421704699	-245.6783190398848	3557.5289080557577	714.1658325935936	-40.88834754711373	3708.506032047405	617.15991413413	198.17133499032605	3700.571510647594	543.4794376492564	345.91968446302684	3554.879833541339	629.8540712097786	387.2251013622988	3480.122555809111	677.7377839315951	429.2725600202774	3521.6444577225066	721.2791954557579	452.4677424009583	3497.1765399108144	700.3501442259419	-38.571163264220175	3593.972797908601	910.8510161933172	209.2331689554435	3508.9733598481357	914.3029309628752	363.6068415469444	3450.13389102289	726.0765969349035	401.59881573380596	3443.7978019956017	622.7738585876767	432.78632027092925	3458.2657863139248	621.7965182881878	473.1036896619227	3497.3394321556793	706.9106540681978
